<svg preserveAspectRatio="none" overflow="visible" style="display: block;" width="28" height="28" viewBox="0 0 28 28" fill="none" xmlns="http://www.w3.org/2000/svg">
<g id="paw-print">
<path id="Vector" d="M15.1667 4.66573C15.1667 5.9544 14.1221 6.99907 12.8334 6.99907C11.5447 6.99907 10.5001 5.9544 10.5001 4.66573C10.5001 3.37707 11.5447 2.3324 12.8334 2.3324C14.1221 2.3324 15.1667 3.37707 15.1667 4.66573ZM23.3334 9.3324C23.3334 10.6211 22.2887 11.6657 21.0001 11.6657C19.7114 11.6657 18.6667 10.6211 18.6667 9.3324C18.6667 8.04374 19.7114 6.99907 21.0001 6.99907C22.2887 6.99907 23.3334 8.04374 23.3334 9.3324ZM25.6667 18.6657C25.6667 19.9544 24.6221 20.9991 23.3334 20.9991C22.0447 20.9991 21.0001 19.9544 21.0001 18.6657C21.0001 17.3771 22.0447 16.3324 23.3334 16.3324C24.6221 16.3324 25.6667 17.3771 25.6667 18.6657ZM10.5003 11.6657C11.2664 11.6657 12.0249 11.8166 12.7327 12.1098C13.4404 12.4029 14.0835 12.8326 14.6251 13.3743C15.1668 13.916 15.5965 14.559 15.8896 15.2667C16.1828 15.9745 16.3337 16.733 16.3337 17.4991V21.5824C16.3334 22.5583 15.9836 23.5018 15.3476 24.242C14.7117 24.9822 13.8317 25.4702 12.867 25.6176C11.9023 25.765 10.9168 25.562 10.0888 25.0454C9.26091 24.5288 8.64535 23.7328 8.35367 22.8016C7.85589 21.1955 6.80589 20.1435 5.20367 19.6457C4.27289 19.3542 3.4772 18.7391 2.96059 17.9118C2.44399 17.0845 2.24059 16.0995 2.38721 15.1353C2.53382 14.171 3.02077 13.291 3.75993 12.6546C4.49909 12.0182 5.44163 11.6674 6.417 11.6657H10.5003Z" stroke-width="1.7" stroke-linecap="round" stroke="#6950BC"/>
</g>
</svg>
